<?xml version="1.0" encoding="utf-8"?>
<!-- Generator: Adobe Illustrator 26.0.1, SVG Export Plug-In . SVG Version: 6.00 Build 0)  -->
<svg version="1.1" id="레이어_1" xmlns="http://www.w3.org/2000/svg" xmlns:xlink="http://www.w3.org/1999/xlink" x="0px"
	 y="0px" viewBox="0 0 1638.4 71" style="enable-background:new 0 0 1638.4 71;" xml:space="preserve">
<style type="text/css">
	.st0{fill:#FFFFFF;}
	.st1{fill:#FF3B01;}
	.st2{fill:#FFFFFF;stroke:#000000;stroke-miterlimit:10;}
</style>
<g>
	<path class="st0" d="M15.3,190.2v-9.5c0-4.3-0.7-9.4-1.7-12.3h26.8c14,0,21.5,6.3,21.5,17.1s-7.5,17.1-21.5,17.1H13.6
		C14.8,199.5,15.3,194.5,15.3,190.2z M38.2,191.4c7,0,10.5-1.9,10.5-5.9s-3.6-5.9-10.5-5.9h-9.7v11.8L38.2,191.4L38.2,191.4z"/>
	<path class="st0" d="M63.9,185.5c0-11.3,10.1-17.8,24.8-17.8s24.8,6.5,24.8,17.8s-10.1,17.8-24.8,17.8
		C74.1,203.3,63.9,196.8,63.9,185.5z M100.5,185.5c0-4.2-4.7-6.7-11.7-6.7c-7.1,0-11.7,2.5-11.7,6.7s4.7,6.8,11.7,6.8
		S100.5,189.7,100.5,185.5z"/>
	<path class="st0" d="M143.5,191.2V189l-13.3-14.6c-2.1-2.3-4.9-4.7-6.7-6h18c1,2,2.1,3.7,4,6l4.4,5.4h0.5l4.3-5.4c1.9-2.3,3-4,4-6
		h18c-1.8,1.3-4.6,3.7-6.7,6l-13.3,14.8v2.2c0,4.1,0.5,8.4,1.3,11.1h-15.7C142.9,199.8,143.5,195.4,143.5,191.2z"/>
	<path class="st0" d="M174.1,185.5c0-11.3,10.1-17.8,24.8-17.8s24.8,6.5,24.8,17.8s-10.1,17.8-24.8,17.8
		C184.2,203.3,174.1,196.8,174.1,185.5z M210.6,185.5c0-4.2-4.7-6.7-11.7-6.7c-7.1,0-11.7,2.5-11.7,6.7s4.6,6.8,11.7,6.8
		C205.9,192.3,210.6,189.7,210.6,185.5z"/>
	<path class="st0" d="M228.1,186.1v-5.3c0-4.2-0.7-9.3-1.7-12.3h16.4c-1,3-1.6,8.6-1.6,12.9v3.4c0,4.5,3.3,7.9,8.1,7.9
		c4.7,0,8-3.4,8-7.9v-3.4c0-4.3-0.7-9.9-1.7-12.9h16.5c-1,3-1.7,8.1-1.7,12.3v5.3c0,10.9-6.4,17.2-21.1,17.2
		C234.6,203.3,228.1,197,228.1,186.1z"/>
	<path class="st0" d="M306.3,185.7c-1.1,0-2.7,0.2-3.4,0.5v3.2c0,4.3,0.6,10,1.7,13.1h-16.5c1.1-3,1.7-8,1.7-12.3v-9.5
		c0-4.3-0.7-9.4-1.7-12.3h16.5c-1,3-1.7,6.9-1.7,11.2v2.1h4.7c6,0,9.6-2.6,9.6-7.6c0-2-0.5-4.1-1.3-5.7h14.4
		c0.9,1.8,1.3,3.4,1.3,5.9c0,7-4.4,9.2-15.3,9.2h-3.5v0.6h0.2c7.6,0,7.5,4.9,14,4.9c4.8,0,7.3-2.2,8.4-5l0.1,15.4
		c-1.3,2.1-4.2,3.9-7.7,3.9C313.8,203.3,317.3,185.7,306.3,185.7z"/>
	<path class="st0" d="M341.1,190.2v-9.5c0-4.3-0.6-9.3-1.7-12.3h15.7l19.3,17.8h0.6v-6c0-4.7-0.8-9.6-1.6-11.8h16.5
		c-1,3-1.7,8-1.7,12.3v21.8h-11.7l-21.6-19.6h-0.6v5.9c0,4.6,0.8,11.1,1.7,13.6h-16.5C340.5,199.6,341.1,194.5,341.1,190.2z"/>
	<path class="st0" d="M393.4,185.5c0-11.3,10.1-17.8,24.8-17.8c14.7,0,24.8,6.5,24.8,17.8s-10.1,17.8-24.8,17.8
		S393.4,196.8,393.4,185.5z M429.9,185.5c0-4.2-4.7-6.7-11.7-6.7s-11.7,2.5-11.7,6.7s4.6,6.8,11.7,6.8
		C425.2,192.3,429.9,189.7,429.9,185.5z"/>
	<path class="st0" d="M452.3,190l-3.7-9.2c-1.8-4.3-4.4-9.3-6.4-12.3h17.1c0.1,1.9,0.4,3.9,1.5,6.6l4.2,10.1
		c0.8,1.9,1.2,3.5,1.9,5.4h0.4l6.9-22.2h9.6l6.9,22.2h0.4c0.6-1.9,1.1-3.6,1.9-5.5l4.2-10.1c1.1-2.7,1.4-4.7,1.5-6.6h17.1
		c-2,3-4.6,8-6.4,12.3l-3.7,9.2c-1.8,4.2-3.4,9.4-4,12.6H486l-6.6-21.4H479l-6.6,21.4h-15.6C455.7,199.4,454,194.2,452.3,190z"/>
	<path class="st0" d="M528.9,186.1v-5.3c0-4.2-0.7-9.3-1.7-12.3h16.5c-1,3-1.6,8.6-1.6,12.9v3.4c0,4.5,3.3,7.9,8.1,7.9
		c4.7,0,8-3.4,8-7.9v-3.4c0-4.3-0.7-9.9-1.7-12.9H573c-1,3-1.7,8.1-1.7,12.3v5.3c0,10.9-6.4,17.2-21.1,17.2
		C535.3,203.3,528.9,197,528.9,186.1z"/>
	<path class="st0" d="M575.9,185.5c0-11.4,9.8-17.8,25-17.8c6.8,0,11.7,0.7,17.6,2.2l-0.8,11.6c-3.5-1.9-9.7-3.2-16.3-3.2
		c-7.8,0-12.8,2.4-12.8,7.1c0,4.2,4.5,7.2,12.4,7.2c3.6,0,7-0.9,9.5-2.6v-1.9H603c-1.2,0-3.2,0.2-4.2,0.6l0.1-4.9h23.3v12.8
		c-4.2,4-11.7,6.6-21.3,6.6C585.8,203.3,575.9,196.9,575.9,185.5z"/>
	<path class="st0" d="M637.8,201.1c-5.6,0-9.6,1.4-11.5,2.1c1.1-3,1.7-8.8,1.7-13.1v-9.5c0-4.3-0.7-9.4-1.7-12.3h16.5
		c-1,3-1.7,11.4-1.7,15.6v7.6h12.4c4.4,0,8.9-0.8,11.3-2.1l-0.2,12.3c-0.3,0.1-3.5,1.4-7.1,1.4C649.9,203.3,646.3,201.1,637.8,201.1
		z"/>
	<path class="st0" d="M678.6,191.2V189l-13.3-14.6c-2.1-2.3-4.9-4.7-6.7-6h18c1,2,2.1,3.7,4,6l4.4,5.4h0.5l4.3-5.4c1.9-2.3,3-4,4-6
		h18c-1.8,1.3-4.6,3.7-6.7,6l-13.3,14.8v2.2c0,4.1,0.5,8.4,1.3,11.1h-15.7C678,199.8,678.6,195.4,678.6,191.2z"/>
	<path class="st0" d="M730.6,190.3l-5.1-9.5c-2.1-4.3-5.1-9.3-7.4-12.3h17.1c0.3,1.9,0.8,3.9,2,6.6l5.2,10.6
		c0.8,1.8,1.4,3.3,1.9,5.2h0.4c0.4-2,1-3.2,1.8-5.2l5.2-10.6c1.2-2.8,1.8-4.7,2-6.6h16.2c-2.3,3-5.3,8-7.4,12.3l-5.1,9.5
		c-2.1,4.3-4.1,9.3-4.7,12.3h-17.4C734.6,199.4,732.6,194.4,730.6,190.3z"/>
	<path class="st0" d="M773.6,190.2v-9.5c0-4.3-0.7-9.4-1.7-12.3h41.7l1.6,12.1c-1.6-0.9-5.6-1.7-9.2-1.7h-19.2v3.9h13.5
		c2.3,0,4.5-0.1,5.9-0.3v5.9c-1.5-0.3-3.7-0.4-5.9-0.4h-13.5v4.2h20.1c3,0,7.3-0.8,9.8-2.7l-2.3,13.1H772
		C773,199.5,773.6,194.5,773.6,190.2z"/>
	<path class="st0" d="M817.5,185.5c0-11.4,9.8-17.8,25-17.8c6.8,0,11.7,0.7,17.6,2.2l-0.8,11.6c-3.5-1.9-9.7-3.2-16.3-3.2
		c-7.8,0-12.9,2.4-12.9,7.1c0,4.2,4.5,7.2,12.4,7.2c3.6,0,7-0.9,9.5-2.6v-1.9h-7.6c-1.2,0-3.2,0.2-4.2,0.6l0.1-4.9h23.3v12.8
		c-4.2,4-11.7,6.6-21.3,6.6C827.3,203.3,817.5,196.9,817.5,185.5z"/>
	<path class="st0" d="M869.5,190.2v-9.5c0-4.3-0.7-9.4-1.7-12.3h41.7l1.6,12.1c-1.6-0.9-5.6-1.7-9.2-1.7h-19.2v3.9h13.5
		c2.3,0,4.5-0.1,5.9-0.3v5.9c-1.5-0.3-3.7-0.4-5.9-0.4h-13.5v4.2h20.1c3,0,7.3-0.8,9.8-2.7l-2.3,13.1h-42.4
		C868.9,199.5,869.5,194.5,869.5,190.2z"/>
	<path class="st0" d="M929.3,190.2v-10.9h-5.5c-5.1,0-8.2,0.3-10.7,1.1l2.4-12h40.8l2.4,12c-2.5-0.8-5.6-1.1-10.7-1.1h-5.6v10.9
		c0,4.3,0.6,9.3,1.7,12.3h-16.5C928.7,199.5,929.3,194.5,929.3,190.2z"/>
	<path class="st0" d="M960,190.2l5.1-9.5c2.1-4.3,4.1-9.3,4.7-12.3h18.8c0.7,3.1,2.7,8.2,4.7,12.3l5.1,9.5c2.1,4.3,5,9.3,7.3,12.3
		H989c-0.2-1.6-0.6-3.2-1.6-6.1l-0.7-1.4h-14.8l-0.7,1.5c-1,2.9-1.5,4.5-1.7,6.1h-16.7C955,199.5,958,194.5,960,190.2z M983.6,189.6
		l-2.4-4.8c-0.9-2.1-1.3-3.8-1.7-5.9h-0.6c-0.4,2.3-0.8,3.8-1.7,5.9l-2.3,4.8H983.6z"/>
	<path class="st0" d="M1008.8,190.2v-9.5c0-4.3-0.7-9.4-1.7-12.3h31.7c6,0,10.9,2.6,10.9,8c0,5.3-4.7,7.9-10.6,7.9h-1.3v0.6h2.2
		c6.7,0,12.2,2.6,12.2,8.7c0,6.1-5.5,8.9-12.5,8.9H1007C1008.2,199.5,1008.8,194.5,1008.8,190.2z M1034.6,182.7
		c1.7,0,3.1-0.7,3.1-2.1c0-1.5-1.3-2.1-3-2.1H1022v4.3L1034.6,182.7L1034.6,182.7z M1035.4,192.3c2.2,0,3.7-0.8,3.7-2.5
		c0-1.8-1.5-2.6-3.7-2.6H1022v5.1H1035.4z"/>
	<path class="st0" d="M1067.3,201.1c-5.6,0-9.6,1.4-11.5,2.1c1.1-3,1.7-8.8,1.7-13.1v-9.5c0-4.3-0.7-9.4-1.7-12.3h16.5
		c-1,3-1.7,11.4-1.7,15.6v7.6h12.4c4.4,0,8.9-0.8,11.3-2.1l-0.2,12.3c-0.3,0.1-3.5,1.4-7.1,1.4
		C1079.4,203.3,1075.8,201.1,1067.3,201.1z"/>
	<path class="st0" d="M1099.5,190.2v-9.5c0-4.3-0.7-9.4-1.7-12.3h41.7l1.6,12.1c-1.6-0.9-5.6-1.7-9.2-1.7h-19.2v3.9h13.5
		c2.3,0,4.5-0.1,5.9-0.3v5.9c-1.5-0.3-3.7-0.4-5.9-0.4h-13.5v4.2h20.1c3,0,7.3-0.8,9.8-2.7l-2.3,13.1h-42.4
		C1098.9,199.5,1099.5,194.5,1099.5,190.2z"/>
	<path class="st0" d="M1143.9,199.6l0.5-13c5.2,4.1,13.1,6.1,23.4,6.1c5.5,0,8.6-0.5,8.6-2.2c0-5.3-32.3,1.9-32.3-12.8
		c0-7.6,9.8-10,22.3-10c6.1,0,14.2,1,19.6,3.1v11.4c-5-2.6-12-4-19.1-4c-4.9-0.1-8.9,0.4-8.9,2.2c0,5.7,32.3-2.5,32.3,11.9
		c0,7.2-7.8,11-22.2,11C1161.3,203.3,1149.5,201.7,1143.9,199.6z"/>
	<path class="st0" d="M1200.7,182.8c9.1,0,11.2-1.4,11.2-4c0-2.1-2.3-3.8-6.7-3.8c-7,0-12.9,2.4-12.9,2.4V170c0,0,5-2.2,12.9-2.2
		c10.3,0,16.8,3.6,16.8,9.6c0,5.2-3.5,8.2-11.3,9.2l-0.5,3.5h-8.3L1200.7,182.8z M1200.3,197.9c0-3.4,2.3-5.3,5.6-5.3
		s5.6,1.9,5.6,5.3c0,3.3-2.3,5.2-5.6,5.2C1202.6,203.1,1200.3,201.2,1200.3,197.9z"/>
</g>
<text transform="matrix(0.9091 0 0 1 0.9219 281.4326)" class="st0" style="font-family:'Brice-BoldExpanded'; font-size:48.7524px;">DO YOU KNOW UGLY VEGETABLES?</text>
<g>
	<path class="st1" d="M403.3,35.5c0-12.4,10.9-17.8,25.1-17.8c7.8,0,14.1,1.8,18.4,3.9l-1.6,11.9c-2.7-2.5-8.2-4.7-15.2-4.7
		c-7.4,0-13.5,2.1-13.5,6.5c0,4.5,6.2,6.7,15.4,6.7c6.3,0,11.7-1.5,15.8-4.3V51c-4.7,1.4-10.6,2.3-18.4,2.3
		C415,53.3,403.3,47.9,403.3,35.5z"/>
	<path class="st1" d="M454.7,40.2l5.1-9.5c2.1-4.3,4.1-9.3,4.7-12.3h18.8c0.7,3.1,2.7,8.2,4.7,12.3l5.1,9.5c2.1,4.3,5,9.3,7.3,12.3
		h-16.8c-0.2-1.6-0.6-3.2-1.6-6.1l-0.7-1.4h-14.8l-0.7,1.5c-1,2.9-1.5,4.5-1.7,6h-16.7C449.7,49.5,452.6,44.5,454.7,40.2z
		 M478.3,39.6l-2.4-4.8c-0.9-2-1.3-3.8-1.7-5.9h-0.6c-0.4,2.3-0.8,3.8-1.7,5.9l-2.3,4.8H478.3z"/>
	<path class="st1" d="M520.3,39.2c-1,0-2.9,0.1-3.6,0.3v2c0,4.2,0.6,7.9,1.7,11h-16.5c1.1-3,1.7-8,1.7-12.3v-9.5
		c0-4.2-0.7-9.3-1.7-12.3h29.3c10.3,0,17.2,3,17.2,9.2c0,6.1-6.6,9.4-16.8,9.4h-3.1v0.6h0.2c6.1,0,5.9,3.7,12.4,3.7
		c4.8,0,7.6-2.5,8.8-5.1l0,13.9c-1.3,2-4.9,3.2-8.4,3.2C525.8,53.3,531.3,39.2,520.3,39.2z M530.2,34.7c3,0,5.1-0.8,5.1-2.5
		c0-1.9-2.1-2.6-5.1-2.6h-13.6v5.2H530.2z"/>
	<path class="st1" d="M555.1,40.2v-9.5c0-4.3-0.7-9.4-1.7-12.3h26.8c14.1,0,21.5,6.3,21.5,17.1s-7.5,17.1-21.5,17.1h-26.8
		C554.5,49.5,555.1,44.5,555.1,40.2z M577.9,41.4c7,0,10.5-1.9,10.5-5.9c0-4-3.6-5.9-10.5-5.9h-9.7v11.8H577.9z"/>
	<path class="st1" d="M629.8,40.2v-9.5c0-4.3-0.6-9.3-1.6-12.3h16.9l8.6,13.7c1.5,2.3,2.3,3.8,3.6,6.9h0.6c1.3-3,2-4.3,3.7-6.9
		l8.7-13.7h16.5c-1.1,3-1.7,8-1.7,12.3v9.5c0,4.3,0.7,9.4,1.7,12.3h-16.4c0.8-2.3,1.6-8.5,1.6-13.1v-5.6h-0.8L659,52.6h-3.4
		l-12.1-18.7H643v5.6c0,4.6,0.8,10.8,1.7,13.1h-16.5C629.2,49.6,629.8,44.5,629.8,40.2z"/>
	<path class="st1" d="M695.5,40.2l5.1-9.5c2.1-4.3,4.1-9.3,4.7-12.3h18.8c0.7,3.1,2.7,8.2,4.7,12.3l5.1,9.5c2.1,4.3,5,9.3,7.3,12.3
		h-16.8c-0.2-1.6-0.6-3.2-1.6-6.1l-0.7-1.4h-14.8l-0.7,1.5c-1,2.9-1.5,4.5-1.7,6h-16.7C690.5,49.5,693.4,44.5,695.5,40.2z
		 M719.1,39.6l-2.4-4.8c-0.9-2-1.3-3.8-1.7-5.9h-0.6c-0.4,2.3-0.8,3.8-1.7,5.9l-2.3,4.8H719.1z"/>
	<path class="st1" d="M751.5,40.2V29.4H746c-5.1,0-8.2,0.3-10.7,1.1l2.4-12h40.8l2.4,12c-2.5-0.8-5.6-1.1-10.7-1.1h-5.6v10.9
		c0,4.3,0.6,9.3,1.7,12.3h-16.5C750.9,49.5,751.5,44.5,751.5,40.2z"/>
	<path class="st1" d="M780.7,35.5c0-12.4,10.9-17.8,25.1-17.8c7.8,0,14.1,1.8,18.4,3.9l-1.6,11.9c-2.7-2.5-8.2-4.7-15.2-4.7
		c-7.4,0-13.5,2.1-13.5,6.5c0,4.5,6.2,6.7,15.4,6.7c6.3,0,11.7-1.5,15.8-4.3V51c-4.7,1.4-10.6,2.3-18.4,2.3
		C792.4,53.3,780.7,47.9,780.7,35.5z"/>
	<path class="st1" d="M830.1,40.2v-9.5c0-4.3-0.7-9.3-1.7-12.3h16.5c-1.1,3.4-1.7,7-1.7,11.2v2.5h15.4v-2.5c0-4.3-0.7-8.1-1.7-11.2
		h16.5c-1.1,3-1.7,8-1.7,12.3v9.5c0,4.3,0.6,9.3,1.7,12.3h-16.5c0.8-3,1.7-6.9,1.7-11.2v-3.1h-15.4v3.1c0,3.9,0.3,7.7,1.7,11.2
		h-16.5C829.5,49.6,830.1,44.5,830.1,40.2z"/>
	<path class="st1" d="M880.2,40.2v-9.5c0-4.3-0.7-9.4-1.7-12.3h16.5c-1,3-1.7,8-1.7,12.3v9.5c0,4.3,0.6,9.3,1.7,12.3h-16.5
		C879.6,49.5,880.2,44.5,880.2,40.2z"/>
	<path class="st1" d="M901.9,40.2v-9.5c0-4.3-0.6-9.3-1.7-12.3h15.7l19.3,17.8h0.6v-6c0-4.7-0.8-9.6-1.6-11.8h16.5
		c-1,3-1.7,8-1.7,12.3v21.8h-11.7L915.7,33H915v5.9c0,4.6,0.8,11.1,1.7,13.7h-16.5C901.3,49.6,901.9,44.5,901.9,40.2z"/>
	<path class="st1" d="M954.2,35.5c0-11.4,9.8-17.8,25-17.8c6.8,0,11.7,0.7,17.6,2.2l-0.8,11.6c-3.5-1.9-9.7-3.2-16.3-3.2
		c-7.8,0-12.9,2.4-12.9,7.1c0,4.2,4.5,7.2,12.4,7.2c3.6,0,7-0.9,9.5-2.6v-2h-7.6c-1.2,0-3.1,0.2-4.2,0.6l0.1-4.9h23.3v12.8
		c-4.2,4-11.7,6.6-21.3,6.6C964.1,53.3,954.2,46.9,954.2,35.5z"/>
	<path class="st1" d="M1025.7,35.5c0-11.4,9.8-17.8,25-17.8c6.8,0,11.7,0.7,17.6,2.2l-0.8,11.6c-3.5-1.9-9.7-3.2-16.3-3.2
		c-7.8,0-12.9,2.4-12.9,7.1c0,4.2,4.5,7.2,12.4,7.2c3.6,0,7-0.9,9.5-2.6v-2h-7.6c-1.2,0-3.1,0.2-4.2,0.6l0.1-4.9h23.3v12.8
		c-4.2,4-11.7,6.6-21.3,6.6C1035.5,53.3,1025.7,46.9,1025.7,35.5z"/>
	<path class="st1" d="M1079.5,40.2l5.1-9.5c2.1-4.3,4.1-9.3,4.7-12.3h18.8c0.7,3.1,2.7,8.2,4.7,12.3l5.1,9.5c2.1,4.3,5,9.3,7.3,12.3
		h-16.8c-0.2-1.6-0.6-3.2-1.6-6.1l-0.7-1.4h-14.8l-0.7,1.5c-1,2.9-1.5,4.5-1.7,6h-16.7C1074.5,49.5,1077.4,44.5,1079.5,40.2z
		 M1103.1,39.6l-2.4-4.8c-0.9-2-1.3-3.8-1.7-5.9h-0.6c-0.4,2.3-0.8,3.8-1.7,5.9l-2.3,4.8H1103.1z"/>
	<path class="st1" d="M1128.2,40.2v-9.5c0-4.3-0.6-9.3-1.6-12.3h16.9l8.6,13.7c1.5,2.3,2.3,3.8,3.6,6.9h0.6c1.3-3,2-4.3,3.7-6.9
		l8.7-13.7h16.5c-1.1,3-1.7,8-1.7,12.3v9.5c0,4.3,0.7,9.4,1.7,12.3h-16.4c0.8-2.3,1.6-8.5,1.6-13.1v-5.6h-0.8l-12.2,18.7h-3.4
		L1142,33.9h-0.6v5.6c0,4.6,0.8,10.8,1.7,13.1h-16.5C1127.6,49.6,1128.2,44.5,1128.2,40.2z"/>
	<path class="st1" d="M1192.1,40.2v-9.5c0-4.3-0.7-9.4-1.7-12.3h41.7l1.6,12.1c-1.6-0.9-5.6-1.7-9.2-1.7h-19.2v3.9h13.5
		c2.3,0,4.5-0.1,5.9-0.3v5.9c-1.5-0.3-3.7-0.4-5.9-0.4h-13.5v4.2h20.1c3,0,7.3-0.8,9.8-2.7l-2.3,13.1h-42.4
		C1191.6,49.5,1192.1,44.5,1192.1,40.2z"/>
</g>
<text transform="matrix(0.9091 0 0 1 356.2321 495.0053)" class="st0" style="font-family:'Brice-BoldExpanded'; font-size:48.7524px;">CARD MATCHING GAME</text>
<text transform="matrix(0.9091 0 0 1 567.0288 -116.0239)" class="st0" style="font-family:'Brice-BlackExpanded'; font-size:49.5px;">01</text>
<g>
	<g>
		<path class="st1" d="M772.7-439.4c0-11.8,11.4-18.1,25.7-18.1s25.7,6.3,25.7,18.1c0,11.7-11.4,18.1-25.7,18.1
			S772.7-427.7,772.7-439.4z M813.5-439.4c0-5-6.7-7.3-15.1-7.3c-8.3,0-15.1,2.4-15.1,7.3s6.8,7.3,15.1,7.3
			C806.8-432.1,813.5-434.5,813.5-439.4z"/>
		<path class="st1" d="M826-433h15.5v-10c-4.5,1.5-9.3,2.4-14.3,2.4v-10c6.3-0.5,13.1-2.4,17-6.1h9.5c-0.4,1.6-0.5,4-0.5,6.1v17.7
			h12.5v10.9h-39.5L826-433L826-433z"/>
	</g>
</g>
<g>
	
		<text transform="matrix(0.4724 0 0 1 49.6948 -251.7422)" class="st1" style="font-family:'Brice-BoldExpanded'; font-size:103.1988px;"> &lt;</text>
	
		<text transform="matrix(-0.4724 0 0 -1 1870.3047 -301.999)" class="st1" style="font-family:'Brice-BoldExpanded'; font-size:103.1988px;"> &lt;</text>
</g>
<rect y="-83.6" class="st2" width="1920" height="68.9"/>
<g>
	<g>
		<path class="st1" d="M770,342.7c0-11.8,11.4-18.1,25.7-18.1s25.6,6.3,25.6,18.1c0,11.7-11.4,18.1-25.7,18.1S770,354.4,770,342.7z
			 M810.8,342.7c0-5-6.7-7.3-15.1-7.3c-8.3,0-15.1,2.4-15.1,7.3s6.8,7.3,15.1,7.3C804,350,810.8,347.6,810.8,342.7z"/>
		<path class="st1" d="M823.5,351.8l22.9-9.3c3.5-1.3,5-2.8,5-4.2c0-2.4-4.4-3-9.1-3c-5.1,0-13.1,1.7-18.1,4.8l-0.1-11.7
			c7.7-2.5,14-3.8,22.1-3.8c12.1,0,21.2,3.8,21.2,10.6c0,4.5-3.5,7.6-10.4,9.3l-14.4,4.2v0.5h16.1c3.6,0,7.7-1.4,9.7-3.8l-0.1,14.7
			h-44.9L823.5,351.8L823.5,351.8z"/>
	</g>
</g>
<g>
	<g>
		<path class="st1" d="M769.6-251.8c0-11.8,11.4-18.1,25.7-18.1c14.3,0,25.7,6.3,25.7,18.1c0,11.7-11.4,18.1-25.7,18.1
			C781-233.7,769.6-240.1,769.6-251.8z M810.3-251.8c0-5-6.7-7.3-15.1-7.3c-8.3,0-15.1,2.4-15.1,7.3s6.8,7.3,15.1,7.3
			C803.6-244.5,810.3-246.9,810.3-251.8z"/>
		<path class="st1" d="M823-236.1v-11c6,2.5,12.8,3.6,18.8,3.6c5.1,0,11.3-1,11.3-3.6c0-2.3-3.3-3-9-3h-11v-4.2h11
			c5.8,0,9-0.7,9-2.8c0-2.6-6.1-3.3-11.2-3.3c-5.3,0-11.6,1.3-16.7,3.3v-10.3c5.4-1.5,13.3-2.4,20.7-2.4c11.5,0,22.4,2.7,22.4,9.5
			c0,4.4-6.4,7.5-14.6,7.5h-2.4v0.5h1.3c9.2,0,16.2,2.7,16.2,7.6c0,6.9-11,10.9-23,10.9C837.5-233.7,828.9-234.6,823-236.1z"/>
	</g>
</g>
<g>
	<g>
		<path class="st1" d="M1174.3-368.7c0-11.8,11.4-18.1,25.7-18.1c14.3,0,25.7,6.3,25.7,18.1c0,11.7-11.4,18.1-25.7,18.1
			C1185.7-350.6,1174.3-357,1174.3-368.7z M1215.1-368.7c0-5-6.7-7.3-15.1-7.3c-8.3,0-15.1,2.4-15.1,7.3s6.8,7.3,15.1,7.3
			C1208.4-361.4,1215.1-363.8,1215.1-368.7z"/>
		<path class="st1" d="M1227.8-354.2v-12.4c5.3,3.5,13.3,5.5,21.1,5.5c5,0,8.6-1.9,8.6-4.4c0-2.8-3-4.2-7.9-4.2
			c-4.1,0-8.2,2.4-10.4,4.3l-10.3-4.1v-16.7h41l0.8,12.6c-2-2.5-6.5-3.2-13.4-3.2h-17.4v6.8l0.3,0.2c3.3-2.4,8.6-4,13.9-4
			c10.1,0,18.4,3.2,18.4,10.5c0,8.6-10,12.4-23.5,12.4C1241.1-350.8,1232-352.7,1227.8-354.2z"/>
	</g>
</g>
<g>
	<g>
		<path class="st1" d="M767.8-177.4c0-11.8,11.4-18.1,25.7-18.1c14.3,0,25.7,6.3,25.7,18.1c0,11.7-11.4,18.1-25.7,18.1
			C779.2-159.3,767.8-165.7,767.8-177.4z M808.5-177.4c0-5-6.7-7.3-15.1-7.3c-8.3,0-15.1,2.4-15.1,7.3s6.8,7.3,15.1,7.3
			C801.8-170.1,808.5-172.5,808.5-177.4z"/>
		<path class="st1" d="M850.9-167.1h-29.5l-0.5-4.1l21.3-23.4l8.5,4.5c-0.3-1.6-0.7-3.2-1.2-4.7h16.7c-1,3.1-1.7,7.2-1.7,11.3v11.4
			h6.1v4.8h-5.7c0.3,2.4,0.7,5.3,1.3,7h-16.7C850.1-161.6,850.5-164.6,850.9-167.1z M851.3-171.9v-11.3l-11.1,11.3H851.3
			L851.3-171.9z"/>
	</g>
</g>
</svg>
